<svg width="28" height="28" viewBox="0 0 28 28" fill="none" xmlns="http://www.w3.org/2000/svg">
<g clip-path="url(#clip0_1104_2)">
<path d="M14 0C21.7199 0 28 6.28009 28 14C28 21.7199 21.7199 28 14 28C6.28009 28 0 21.7199 0 14C0 6.28009 6.28009 0 14 0Z" fill="#FE7C96"/>
<path d="M8.84451 17.5059C8.38842 17.9622 8.38842 18.6994 8.84451 19.1557C9.07202 19.3832 9.37066 19.4975 9.66952 19.4975C9.96816 19.4975 10.2668 19.3832 10.4943 19.1557L14.0001 15.6497L17.5059 19.1557C17.7334 19.3832 18.032 19.4975 18.3307 19.4975C18.6295 19.4975 18.9282 19.3832 19.1557 19.1557C19.6118 18.6994 19.6118 17.9622 19.1557 17.5059L15.6497 14.0001L19.1557 10.4943C19.6118 10.038 19.6118 9.3008 19.1557 8.84451C18.6994 8.38842 17.9622 8.38842 17.5059 8.84451L14.0001 12.3505L10.4943 8.84451C10.038 8.38842 9.30081 8.38842 8.84451 8.84451C8.38842 9.3008 8.38842 10.038 8.84451 10.4943L12.3505 14.0001L8.84451 17.5059Z" fill="#FAFAFA"/>
</g>
<defs>
<clipPath id="clip0_1104_2">
<rect width="28" height="28" fill="white"/>
</clipPath>
</defs>
</svg>
