<svg width="24" height="24" viewBox="0 0 24 24" fill="none" xmlns="http://www.w3.org/2000/svg">
<path fill-rule="evenodd" clip-rule="evenodd" d="M12 4C10.6008 3.99974 9.22592 4.36649 8.01271 5.06363C6.7995 5.76077 5.79036 6.76392 5.08601 7.97295C4.38166 9.18199 4.00674 10.5546 3.99866 11.9538C3.99059 13.3531 4.34965 14.7299 5.04 15.947C5.50661 15.3406 6.10643 14.8496 6.79308 14.512C7.47974 14.1744 8.23483 13.9992 9 14H15C15.7652 13.9992 16.5203 14.1744 17.2069 14.512C17.8936 14.8496 18.4934 15.3406 18.96 15.947C19.6503 14.7299 20.0094 13.3531 20.0013 11.9538C19.9933 10.5546 19.6183 9.18199 18.914 7.97295C18.2096 6.76392 17.2005 5.76077 15.9873 5.06363C14.7741 4.36649 13.3992 3.99974 12 4ZM19.943 18.076C21.28 16.333 22.0032 14.1968 22 12C22 6.477 17.523 2 12 2C6.477 2 2 6.477 2 12C1.99669 14.1968 2.7199 16.333 4.057 18.076L4.052 18.094L4.407 18.507C5.34488 19.6035 6.50938 20.4836 7.82023 21.0866C9.13108 21.6897 10.5571 22.0013 12 22C14.0273 22.0037 16.0074 21.3879 17.675 20.235C18.3859 19.7438 19.0306 19.163 19.593 18.507L19.948 18.094L19.943 18.076ZM12 6C11.2043 6 10.4413 6.31607 9.87868 6.87868C9.31607 7.44129 9 8.20435 9 9C9 9.79565 9.31607 10.5587 9.87868 11.1213C10.4413 11.6839 11.2043 12 12 12C12.7956 12 13.5587 11.6839 14.1213 11.1213C14.6839 10.5587 15 9.79565 15 9C15 8.20435 14.6839 7.44129 14.1213 6.87868C13.5587 6.31607 12.7956 6 12 6Z" fill="#CCCCCC"/>
</svg>
